<?xml version="1.0" encoding="utf-8"?>
<!-- Generator: Adobe Illustrator 24.0.1, SVG Export Plug-In . SVG Version: 6.00 Build 0)  -->
<svg version="1.1" id="Layer_1" xmlns="http://www.w3.org/2000/svg" xmlns:xlink="http://www.w3.org/1999/xlink" x="0px" y="0px"
	 viewBox="0 0 600 600" style="enable-background:new 0 0 600 600;" xml:space="preserve">
<style type="text/css">
	.st0{fill:#EB1D2E;}
	.st1{font-family:'Airstrike3D';}
	.st2{font-size:336.2785px;}
</style>
<g>
	<g>
		<path d="M45.23,378.43h5.86l2.79,16.25c0.52,3.42,1.07,6.85,1.59,10.27h0.2c0.67-3.42,1.38-6.88,2.09-10.27l3.96-16.25h4.96
			l3.96,16.25c0.71,3.33,1.42,6.82,2.13,10.27h0.2c0.52-3.45,1.03-6.91,1.55-10.27l2.79-16.25h5.47l-6.18,32.17h-7.06l-3.99-16.94
			c-0.53-2.5-1-4.96-1.42-7.4h-0.2c-0.44,2.44-0.93,4.9-1.46,7.4l-3.9,16.94h-6.95L45.23,378.43z"/>
		<path d="M87.79,378.43h19.36v4.8H93.5v8.25h11.57v4.8H93.5v9.52h14.15v4.8H87.79V378.43z"/>
		<path d="M114.25,378.43h10.29c6.61,0,11.47,2.03,11.47,7.93c0,3.03-1.65,5.98-4.47,6.97v0.2c3.56,0.81,6.18,3.29,6.18,7.63
			c0,6.43-5.27,9.45-12.36,9.45h-11.12V378.43z M124.03,391.72c4.49,0,6.4-1.75,6.4-4.55c0-3.11-2.11-4.29-6.28-4.29h-4.19v8.83
			H124.03z M124.78,406.16c4.72,0,7.36-1.69,7.36-5.31c0-3.38-2.56-4.86-7.36-4.86h-4.82v10.17H124.78z"/>
		<path d="M141.41,406.48l3.33-3.92c2.3,2.19,5.39,3.67,8.38,3.67c3.62,0,5.61-1.64,5.61-4.15c0-2.65-2.08-3.49-5-4.73l-4.4-1.91
			c-3.17-1.32-6.5-3.83-6.5-8.53c0-5.13,4.53-9.07,10.8-9.07c3.76,0,7.4,1.55,9.92,4.1l-2.93,3.62c-2.05-1.74-4.23-2.76-6.99-2.76
			c-3.05,0-5.04,1.43-5.04,3.78c0,2.53,2.45,3.46,5.12,4.56l4.34,1.82c3.83,1.59,6.5,4.01,6.5,8.68c0,5.21-4.33,9.56-11.55,9.56
			C148.65,411.2,144.46,409.48,141.41,406.48z"/>
		<path d="M170.42,378.43h5.71v32.17h-5.71V378.43z"/>
		<path d="M190.79,383.23h-9.29v-4.8h24.28v4.8h-9.29v27.37h-5.71V383.23z"/>
		<path d="M211.15,378.43h19.36v4.8h-13.66v8.25h11.57v4.8h-11.57v9.52H231v4.8h-19.85V378.43z"/>
		<path d="M247.45,378.43h8.58c9.86,0,15.68,5.31,15.68,15.96c0,10.65-5.82,16.21-15.39,16.21h-8.88V378.43z M255.65,405.98
			c6.47,0,10.19-3.68,10.19-11.59c0-7.91-3.72-11.33-10.19-11.33h-2.5v22.92H255.65z"/>
		<path d="M278.19,378.43h19.36v4.8H283.9v8.25h11.57v4.8H283.9v9.52h14.15v4.8h-19.85V378.43z"/>
		<path d="M300.38,378.43h6.04l4.53,16.17c1.04,3.65,1.75,6.81,2.83,10.47h0.2c1.08-3.66,1.82-6.82,2.83-10.47l4.47-16.17h5.83
			l-9.96,32.17h-6.77L300.38,378.43z"/>
		<path d="M331.02,378.43h19.36v4.8h-13.66v8.25h11.57v4.8h-11.57v9.52h14.15v4.8h-19.86V378.43z"/>
		<path d="M357.48,378.43h5.71v27.37h13.36v4.8h-19.07V378.43z"/>
		<path d="M380.48,394.39c0-10.41,5.8-16.55,14.19-16.55s14.19,6.17,14.19,16.55c0,10.41-5.8,16.8-14.19,16.8
			S380.48,404.8,380.48,394.39z M402.99,394.39c0-7.22-3.27-11.59-8.32-11.59c-5.06,0-8.32,4.37-8.32,11.59s3.27,11.85,8.32,11.85
			C399.72,406.24,402.99,401.61,402.99,394.39z"/>
		<path d="M415.32,378.43h10.13c7.14,0,12.44,2.48,12.44,9.92c0,7.17-5.31,10.43-12.24,10.43h-4.62v11.83h-5.71V378.43z
			 M425.18,394.21c4.8,0,7.08-1.91,7.08-5.86c0-3.99-2.5-5.35-7.28-5.35h-3.96v11.22H425.18z"/>
		<path d="M443.95,378.43h6.45l5.69,15.72c0.71,2.05,1.36,4.21,2.07,6.32h0.2c0.71-2.11,1.32-4.27,2.03-6.32l5.57-15.72h6.45v32.17
			h-5.23v-14.72c0-2.97,0.45-7.25,0.73-10.23h-0.2l-2.6,7.48l-5.29,14.45h-3.38l-5.31-14.45l-2.56-7.48h-0.2
			c0.28,2.98,0.73,7.26,0.73,10.23v14.72h-5.14V378.43z"/>
		<path d="M480.59,378.43h19.36v4.8H486.3v8.25h11.57v4.8H486.3v9.52h14.15v4.8h-19.86V378.43z"/>
		<path d="M507.05,378.43h5.86l10,18.08l3.33,6.87h0.2c-0.28-3.33-0.73-7.4-0.73-10.98v-13.97h5.43v32.17h-5.86l-10-18.11
			l-3.33-6.84h-0.2c0.28,3.4,0.73,7.28,0.73,10.86v14.09h-5.43V378.43z"/>
		<path d="M545.82,383.23h-9.29v-4.8h24.28v4.8h-9.29v27.37h-5.71V383.23z"/>
	</g>
</g>
<text transform="matrix(0.9312 0 0 1 31.5043 341.4102)"><tspan x="0" y="0" class="st0 st1 st2">D</tspan><tspan x="229.34" y="0" class="st1 st2">W</tspan></text>
</svg>
